<?xml version="1.0" encoding="UTF-8"?><svg id="a" xmlns="http://www.w3.org/2000/svg" viewBox="0 0 153.57 181.5"><path d="M140.23,175.71c-12.1,2.45-24.35,4.92-36.67,4.3-7.94-.4-15.77-2.07-23.52-3.91-21.35-5.05-43.79-12.2-57.64-29.49-6.22-7.77-10.27-17.11-13.4-26.62C2.15,99.11-.56,76.57,3.21,54.89c1.52-8.74,4.29-17.66,10.45-23.95,4.4-4.49,10.18-7.28,15.93-9.7,19.12-8.04,41.24-12.94,60.18-4.47-.37-5.55-2.49-10.97-5.96-15.27,22.28-.54,44.43,11.86,55.94,31.3-16.52,7.14-32.53,15.53-47.84,25.06-1.55-5.12-.92-10.88,1.7-15.53-5.74-2.26-11.68-4.47-17.84-4.38-10.33.15-19.83,7.06-25.08,16.13s-6.7,19.97-6.11,30.48c1.42,25.73,15.04,50.47,35.83,65.15,20.65,14.57,48.63,18.79,71.66,8.57-4.03,7.44-9.79,13.9-16.68,18.7"/><path d="M139.83,174.26c-11.62,2.36-23.38,4.73-35.3,4.29-11.03-.41-21.98-3.18-32.6-6.03-17.92-4.79-36.36-11.97-48.35-26.82-6.65-8.24-10.71-18.3-13.84-28.33-3.38-10.82-5.65-22.02-6.43-33.34-.76-10.9-.26-22.03,2.13-32.72,1.07-4.79,2.59-9.52,5.09-13.77s6.23-7.87,10.61-10.5,9.3-4.64,14.14-6.46,10.16-3.5,15.39-4.69c10.14-2.3,20.86-3,31-.36,2.51.65,4.97,1.49,7.34,2.54.94.42,2.35-.04,2.26-1.3-.45-6.01-2.65-11.61-6.4-16.33l-1.06,2.56c17.07-.35,33.85,6.87,45.76,19.02,3.41,3.48,6.39,7.34,8.88,11.53l.54-2.05c-16.54,7.16-32.53,15.54-47.84,25.06l2.2.9c-1.4-4.81-.86-9.97,1.55-14.37.5-.92.01-1.85-.9-2.2-7.9-3.1-16.18-5.81-24.67-3.53-7.13,1.92-13.25,6.63-17.63,12.48-9.78,13.05-10.15,31.27-7.11,46.65s9.82,28.91,19.64,40.43,23.04,20.45,37.72,24.98,30.92,4.83,45.54-.23c1.81-.63,3.58-1.34,5.34-2.11l-2.05-2.05c-3.93,7.19-9.43,13.44-16.14,18.16-1.57,1.1-.07,3.7,1.51,2.59,7.13-5.02,13.03-11.58,17.22-19.24.77-1.41-.73-2.63-2.05-2.05-13.45,5.92-28.75,6.8-42.99,3.53-14.36-3.3-27.47-10.7-37.81-21.18-10.04-10.18-17.42-22.93-21.35-36.67-2.03-7.08-3.15-14.42-3.2-21.79-.06-7.97,1.13-16.15,4.62-23.38,3.1-6.42,8.02-11.94,14.39-15.24,3.05-1.58,6.43-2.59,9.86-2.77,4.2-.23,8.31.73,12.27,2.04,2.06.68,4.08,1.47,6.1,2.26l-.9-2.2c-2.79,5.09-3.47,11.1-1.85,16.68.26.91,1.37,1.42,2.2.9,15.3-9.52,31.3-17.9,47.84-25.06.74-.32.91-1.42.54-2.05-9.18-15.39-24.84-26.63-42.32-30.54C93.83.42,88.81-.09,83.8.01c-1.4.03-1.84,1.57-1.06,2.56,3.22,4.05,5.14,9.06,5.53,14.21l2.26-1.3c-20.46-9.05-43.64-3.39-63.26,5.14-4.93,2.14-9.78,4.67-13.75,8.37-3.74,3.48-6.37,7.91-8.26,12.61s-3.04,9.87-3.82,14.96C.54,62.27.07,68.04,0,73.82c-.12,11.76,1.41,23.53,4.22,34.94,2.63,10.72,6.19,21.54,11.77,31.11,5.13,8.79,12.28,16,20.82,21.49,8.18,5.26,17.32,8.94,26.58,11.82,4.74,1.48,9.54,2.75,14.37,3.91,5.84,1.41,11.71,2.76,17.66,3.6,12.14,1.72,24.12.48,36.11-1.75,3.04-.57,6.07-1.18,9.1-1.79,1.89-.38,1.09-3.28-.8-2.89h0Z"/></svg>